<svg width="140" height="140" viewBox="0 0 140 140" fill="none" xmlns="http://www.w3.org/2000/svg">
<g id="streamline:champagne-party-alcohol-solid">
<path id="Vector" fill-rule="evenodd" clip-rule="evenodd" d="M32.08 5.74C32.7451 3.9814 34.0464 2.53674 35.7262 1.6922C37.406 0.847663 39.3418 0.664858 41.15 1.18L77.16 11.44C78.9703 11.9563 80.5202 13.1345 81.5021 14.7406C82.4839 16.3468 82.8259 18.2634 82.46 20.11L72 73.15C70.5867 80.309 66.6775 86.7337 60.9691 91.2792C55.2606 95.8247 48.1237 98.1958 40.83 97.97L34.11 121.54L41.51 123.65C43.4235 124.195 45.0422 125.478 46.0099 127.216C46.9776 128.955 47.215 131.006 46.67 132.92C46.125 134.834 44.8421 136.452 43.1037 137.42C41.3652 138.388 39.3135 138.625 37.4 138.08L23.13 134C22.8936 133.945 22.66 133.878 22.43 133.8L8.14 129.73C6.22646 129.184 4.60833 127.9 3.64158 126.16C2.67483 124.421 2.43865 122.369 2.985 120.455C3.53135 118.541 4.81546 116.923 6.55486 115.957C8.29426 114.99 10.3465 114.754 12.26 115.3L19.68 117.42L26.4 93.85C20.0842 90.1966 15.2705 84.4197 12.8165 77.5484C10.3625 70.6771 10.4275 63.1578 13 56.33L32.08 5.74ZM36.89 35.48L62.63 43.14L66.41 23.97L43.68 17.49L36.89 35.48ZM100.02 98.69C92.0175 98.6899 84.3287 95.5771 78.58 90.01C81.3258 85.5782 83.2468 80.686 84.25 75.57L91.23 40.18L106.02 36.65L99.71 18.16L95.09 19.32C95.2633 14.1029 93.3899 9.02472 89.87 5.17L102.75 1.94C104.576 1.48012 106.507 1.7236 108.162 2.62209C109.816 3.52058 111.072 5.00836 111.68 6.79L129.14 57.96C131.494 64.8636 131.322 72.3787 128.654 79.1671C125.985 85.9555 120.995 91.5768 114.57 95.03L120.53 118.8L127.98 116.93C129.909 116.446 131.952 116.748 133.659 117.77C135.365 118.792 136.596 120.451 137.08 122.38C137.564 124.309 137.262 126.352 136.24 128.059C135.218 129.765 133.559 130.996 131.63 131.48L117.2 135.1C117.006 135.158 116.809 135.208 116.61 135.25L102.12 138.89C100.191 139.374 98.1478 139.072 96.4413 138.05C94.7347 137.028 93.504 135.369 93.02 133.44C92.536 131.511 92.8383 129.468 93.8603 127.761C94.8824 126.055 96.5406 124.824 98.47 124.34L105.98 122.45L100.02 98.69Z" fill="#CBC8B6"/>
</g>
</svg>
