<svg width="140" height="140" viewBox="0 0 140 140" fill="none" xmlns="http://www.w3.org/2000/svg">
<g id="vaadin:globe" clip-path="url(#clip0_10_75)">
<path id="Vector" d="M70 0C31.5 0 0 31.5 0 70C0 108.5 31.5 140 70 140C108.5 140 140 108.5 140 70C140 31.5 108.5 0 70 0ZM115.5 46.375C119 46.375 121.625 49 125.125 49C122.5 52.5 111.125 52.5 107.625 48.125C110.25 47.25 112 46.375 115.5 46.375ZM8.75 70C8.75 66.5 8.75 63 9.625 58.625C10.5 58.625 11.375 59.5 12.25 59.5C12.25 59.5 13.125 60.375 13.125 61.25C13.125 63.875 15.75 65.625 17.5 65.625C24.5 66.5 27.125 72.625 33.25 74.375C35 75.25 34.125 77 33.25 78.75C28 85.75 32.375 91 36.75 95.375C41.125 98.875 41.125 102.375 42 107.625C42 113.75 42.875 120.75 45.5 126.875C23.625 116.375 8.75 95.375 8.75 70ZM70 131.25C63.875 131.25 56.875 130.375 51.625 128.625C50.75 126.875 50.75 125.125 51.625 123.375C55.125 116.375 58.625 110.25 63 104.125C64.75 102.375 66.5 100.625 66.5 98C66.5 96.25 67.375 93.625 68.25 91.875C70.875 87.5 70 84.875 66.5 84C59.5 82.25 56 76.125 50.75 73.5C45.5 70.875 40.25 69.125 35.875 71.75C34.125 72.625 31.5 73.5 31.5 70.875C31.5 67.375 27.125 64.75 28 61.25C27.125 61.25 26.25 61.25 25.375 62.125C24.5 63 23.625 63.875 21.875 63C20.125 61.25 21 59.5 21 57.75C21.875 56 22.75 55.125 24.5 54.25C28 53.375 31.5 53.375 33.25 57.75C35.875 49.875 41.125 45.5 46.375 42C46.375 42 53.375 35.875 54.25 35.875C55.125 35.875 56 37.625 57.75 38.5C59.5 38.5 60.375 38.5 60.375 36.75C61.25 32.375 58.625 27.125 55.125 26.25C55.125 25.375 56 25.375 56 25.375C58.625 24.5 62.125 22.75 61.25 20.125C61.25 16.625 57.75 14.875 54.25 14.875C52.5 14.875 50.75 14.875 49 15.75C45.5 17.5 41.125 19.25 35.875 19.25C45.5 12.25 57.75 8.75 70 8.75H77C71.75 9.625 66.5 11.375 63 13.125C68.25 14 69.125 16.625 67.375 21C66.5 22.75 67.375 24.5 69.125 25.375C70.875 26.25 72.625 26.25 73.5 24.5C75.25 21.875 78.75 21 81.375 20.125C84.875 19.25 87.5 17.5 90.125 14C90.125 13.125 91 13.125 91.875 12.25C97.125 14 102.375 17.5 107.625 21C106.75 21 106.75 21.875 105.875 21.875C104.125 23.625 101.5 24.5 104.125 28C105 29.75 104.125 30.625 103.25 31.5C101.5 32.375 100.625 31.5 99.75 30.625C98.875 29.75 98.875 28 96.25 28C95.375 29.75 92.75 30.625 92.75 33.25C97.125 33.25 96.25 36.75 97.125 39.375C91.875 40.25 90.125 42.875 92.75 47.25C93.625 49 91.875 49.875 91 50.75C87.5 56 84 59.5 84 65.625C84 71.75 88.375 77.875 95.375 77C103.25 76.125 103.25 76.125 105.875 83.125C105.875 84 106.75 84.875 106.75 85.75C107.625 87.5 108.5 89.25 107.625 91C105 98 108.5 103.25 111.125 108.5C112 110.25 112.875 111.125 113.75 112C102.375 124.25 87.5 131.25 70 131.25Z" fill="#CBC8B6"/>
</g>
<defs>
<clipPath id="clip0_10_75">
<rect width="140" height="140" fill="white"/>
</clipPath>
</defs>
</svg>
